#tb 0: 100/2997
#media_type 0: video
#codec_id 0: rawvideo
#dimensions 0: 480x256
#sar 0: 0/1
0,          0,          0,        1,   368640, 0x18364db2
0,          1,          1,        1,   368640, 0x60e79ea4
0,          2,          2,        1,   368640, 0xb28a7f03
0,          3,          3,        1,   368640, 0x2ed83575
